<svg id="visual" viewBox="0 0 900 600" width="900" height="600" xmlns="http://www.w3.org/2000/svg" xmlns:xlink="http://www.w3.org/1999/xlink" version="1.1"><rect x="0" y="0" width="900" height="600" fill="#ffffff"></rect><defs><linearGradient id="grad1_0" x1="33.3%" y1="0%" x2="100%" y2="100%"><stop offset="20%" stop-color="#587bff" stop-opacity="1"></stop><stop offset="80%" stop-color="#587bff" stop-opacity="1"></stop></linearGradient></defs><defs><linearGradient id="grad1_1" x1="33.3%" y1="0%" x2="100%" y2="100%"><stop offset="20%" stop-color="#587bff" stop-opacity="1"></stop><stop offset="80%" stop-color="#ffffff" stop-opacity="1"></stop></linearGradient></defs><defs><linearGradient id="grad2_0" x1="0%" y1="0%" x2="66.7%" y2="100%"><stop offset="20%" stop-color="#587bff" stop-opacity="1"></stop><stop offset="80%" stop-color="#587bff" stop-opacity="1"></stop></linearGradient></defs><defs><linearGradient id="grad2_1" x1="0%" y1="0%" x2="66.7%" y2="100%"><stop offset="20%" stop-color="#ffffff" stop-opacity="1"></stop><stop offset="80%" stop-color="#587bff" stop-opacity="1"></stop></linearGradient></defs><g transform="translate(900, 0)"><path d="M0 432.7C-55.1 423.2 -110.2 413.7 -163.4 394.5C-216.6 375.3 -267.8 346.4 -305.9 305.9C-344.1 265.5 -369.1 213.6 -388 160.7C-407 107.8 -419.8 53.9 -432.7 0L0 0Z" fill="#b8baff"></path><path d="M0 216.3C-27.6 211.6 -55.1 206.9 -81.7 197.2C-108.3 187.6 -133.9 173.2 -153 153C-172 132.8 -184.5 106.8 -194 80.4C-203.5 53.9 -209.9 27 -216.3 0L0 0Z" fill="#587bff"></path></g><g transform="translate(0, 600)"><path d="M0 -432.7C46.2 -404.3 92.5 -376 149.2 -360.3C206 -344.6 273.3 -341.5 305.9 -305.9C338.6 -270.3 336.6 -202.2 352 -145.8C367.3 -89.4 400 -44.7 432.7 0L0 0Z" fill="#b8baff"></path><path d="M0 -216.3C23.1 -202.2 46.2 -188 74.6 -180.2C103 -172.3 136.6 -170.8 153 -153C169.3 -135.2 168.3 -101.1 176 -72.9C183.7 -44.7 200 -22.3 216.3 0L0 0Z" fill="#587bff"></path></g></svg>